<?xml version="1.0" encoding="UTF-8" standalone="no"?>
<svg
   xmlns:dc="http://purl.org/dc/elements/1.1/"
   xmlns:cc="http://creativecommons.org/ns#"
   xmlns:rdf="http://www.w3.org/1999/02/22-rdf-syntax-ns#"
   xmlns:svg="http://www.w3.org/2000/svg"
   xmlns="http://www.w3.org/2000/svg"
   xmlns:sodipodi="http://sodipodi.sourceforge.net/DTD/sodipodi-0.dtd"
   xmlns:inkscape="http://www.inkscape.org/namespaces/inkscape"
   sodipodi:docname="quote.svg"
   inkscape:version="1.0.1 (3bc2e813f5, 2020-09-07)"
   id="svg4705"
   version="1.1"
   viewBox="0 0 132.29166 85.460415"
   height="323"
   width="500">
  <defs
     id="defs4699">
    <inkscape:path-effect
       effect="bspline"
       id="path-effect857"
       is_visible="true"
       lpeversion="1"
       weight="33.333333"
       steps="2"
       helper_size="0"
       apply_no_weight="true"
       apply_with_weight="true"
       only_selected="false" />
  </defs>
  <sodipodi:namedview
     units="px"
     inkscape:document-rotation="0"
     inkscape:window-maximized="1"
     inkscape:window-y="27"
     inkscape:window-x="2004"
     inkscape:window-height="1016"
     inkscape:window-width="1836"
     fit-margin-bottom="0"
     fit-margin-right="0"
     fit-margin-left="0"
     fit-margin-top="0"
     showgrid="false"
     inkscape:current-layer="layer2"
     inkscape:document-units="px"
     inkscape:cy="124.73396"
     inkscape:cx="220.11232"
     inkscape:zoom="1.4"
     inkscape:pageshadow="2"
     inkscape:pageopacity="0.0"
     borderopacity="1.0"
     bordercolor="#666666"
     pagecolor="#ffffff"
     id="base" />
  <metadata
     id="metadata4702">
    <rdf:RDF>
      <cc:Work
         rdf:about="">
        <dc:format>image/svg+xml</dc:format>
        <dc:type
           rdf:resource="http://purl.org/dc/dcmitype/StillImage" />
        <dc:title />
      </cc:Work>
    </rdf:RDF>
  </metadata>
  <g
     inkscape:groupmode="layer"
     id="layer2"
     inkscape:label="Quote">
    <g
       id="g847"
       transform="matrix(0.98964252,0,0,0.98964252,0.86275989,0.73120693)">
      <path
         style="fill:none;stroke:#000000;stroke-width:0.264583px;stroke-linecap:butt;stroke-linejoin:miter;stroke-opacity:1"
         d="m 129.67697,35.87939 c 0,0 0,0 0,0 z"
         id="path855"
         inkscape:path-effect="#path-effect857"
         inkscape:original-d="m 129.67697,35.87939 c -42.384805,-1.39527 -84.769873,-2.790801 0,0 z" />
      <path
         id="path912"
         style="color:#000000;font-style:normal;font-variant:normal;font-weight:normal;font-stretch:normal;font-size:medium;line-height:normal;font-family:sans-serif;font-variant-ligatures:normal;font-variant-position:normal;font-variant-caps:normal;font-variant-numeric:normal;font-variant-alternates:normal;font-variant-east-asian:normal;font-feature-settings:normal;font-variation-settings:normal;text-indent:0;text-align:start;text-decoration:none;text-decoration-line:none;text-decoration-style:solid;text-decoration-color:#000000;letter-spacing:normal;word-spacing:normal;text-transform:none;writing-mode:lr-tb;direction:ltr;text-orientation:mixed;dominant-baseline:auto;baseline-shift:baseline;text-anchor:start;white-space:normal;shape-padding:0;shape-margin:0;inline-size:0;clip-rule:nonzero;display:inline;overflow:visible;visibility:visible;isolation:auto;mix-blend-mode:normal;color-interpolation:sRGB;color-interpolation-filters:linearRGB;solid-color:#000000;solid-opacity:1;vector-effect:none;fill:#ffffff;fill-opacity:1;fill-rule:nonzero;stroke:none;stroke-width:10;stroke-linecap:butt;stroke-linejoin:round;stroke-miterlimit:4;stroke-dasharray:none;stroke-dashoffset:0;stroke-opacity:1;paint-order:normal;color-rendering:auto;image-rendering:auto;shape-rendering:auto;text-rendering:auto;enable-background:accumulate;stop-color:#000000"
         d="M 243.63672,7.2089844 C 236.80379,7.1952778 229.97617,7.317459 223.17578,7.5742188 182.37347,9.1147779 142.58056,15.567267 108.63281,27.261719 63.369147,42.85432 28.860204,67.615297 14.978516,101.75195 l -0.02344,0.0508 -0.02148,0.0527 C 7.066605,120.01925 8.6089982,136.35273 17.326172,152 c 8.717174,15.64727 25.021748,30.40126 46.734375,43.26562 43.425253,25.72877 108.125193,43.7991 173.894533,49.8125 26.25399,2.40046 52.68448,2.87052 78.01172,1.22266 l 30.96484,71.51172 35.36914,-81.67969 c 12.89837,-3.33945 25.03217,-7.44834 36.12695,-12.38867 23.90348,-10.64383 42.9648,-25.00738 55.13477,-43.3457 12.14612,-18.30244 17.63727,-40.63461 14.04102,-68.26758 C 481.95184,81.973142 454.13948,56.899804 413.2168,38.828125 372.24629,20.735325 318.71202,9.9193666 264.13086,7.6542969 257.30821,7.371164 250.46964,7.2226909 243.63672,7.2089844 Z"
         transform="scale(0.26458332)" />
      <path
         id="path907"
         style="color:#000000;font-style:normal;font-variant:normal;font-weight:normal;font-stretch:normal;font-size:medium;line-height:normal;font-family:sans-serif;font-variant-ligatures:normal;font-variant-position:normal;font-variant-caps:normal;font-variant-numeric:normal;font-variant-alternates:normal;font-variant-east-asian:normal;font-feature-settings:normal;font-variation-settings:normal;text-indent:0;text-align:start;text-decoration:none;text-decoration-line:none;text-decoration-style:solid;text-decoration-color:#000000;letter-spacing:normal;word-spacing:normal;text-transform:none;writing-mode:lr-tb;direction:ltr;text-orientation:mixed;dominant-baseline:auto;baseline-shift:baseline;text-anchor:start;white-space:normal;shape-padding:0;shape-margin:0;inline-size:0;clip-rule:nonzero;display:inline;overflow:visible;visibility:visible;isolation:auto;mix-blend-mode:normal;color-interpolation:sRGB;color-interpolation-filters:linearRGB;solid-color:#000000;solid-opacity:1;vector-effect:none;fill:#000000;fill-opacity:1;fill-rule:nonzero;stroke:none;stroke-width:9.99999;stroke-linecap:butt;stroke-linejoin:miter;stroke-miterlimit:4;stroke-dasharray:none;stroke-dashoffset:0;stroke-opacity:1;color-rendering:auto;image-rendering:auto;shape-rendering:auto;text-rendering:auto;enable-background:accumulate;stop-color:#000000"
         d="m 243.66211,-2.7910156 c -6.9662,-0.01671 -13.92686,0.1038752 -20.86133,0.3632812 C 181.19394,-0.87129815 140.52291,5.6974725 105.37695,17.804688 58.543575,33.938031 21.172525,60.04741 5.7421875,97.914062 c -8.9543222,20.704418 -7.1205128,41.054868 2.8496094,58.951168 9.9762381,17.90729 27.6811011,33.56205 50.3750001,47.00782 45.387803,26.89153 111.106013,45.04049 178.080083,51.16406 26.30139,2.40478 52.7835,2.94811 78.29882,1.375 l 27.83594,64.28711 a 4.3305669,5.7740894 0 0 0 3.63672,2.88672 4.3305669,5.7740894 0 0 0 3.86523,-2.88672 l 32.19336,-74.35352 c 14.07873,-3.5578 27.37951,-8.01949 39.61719,-13.46875 25.152,-11.19979 45.9055,-26.61143 59.40234,-46.94922 13.49689,-20.33778 19.51637,-45.53376 15.61329,-75.25195 l -0.0156,-0.13281 -0.0293,-0.13281 C 490.96954,75.41026 459.81218,48.475607 417.25391,29.681641 374.69562,10.887674 320.17442,-0.02378091 264.55273,-2.3320312 257.60002,-2.6205625 250.62831,-2.7743058 243.66211,-2.7910156 Z m -0.0254,10 c 1.70823,0.00343 3.4164,0.014885 5.125,0.035156 0,0 0.002,0 0.002,0 0.0287,3.401e-4 0.0573,0.00161 0.0859,0.00195 5.09649,0.061326 10.19352,0.1970674 15.28125,0.4082031 11.93963,0.495484 23.82994,1.400677 35.54883,2.7011725 3.34825,0.37157 6.68242,0.775052 10,1.210937 1.65879,0.217943 3.31282,0.44383 4.96289,0.677735 8.25034,1.169524 16.38763,2.538814 24.36719,4.101562 1.59591,0.31255 3.1846,0.632892 4.76757,0.960938 3.16594,0.65609 6.30606,1.34294 9.41602,2.060547 3.10996,0.717605 6.18992,1.46564 9.23828,2.24414 3.04775,0.778343 6.06437,1.587191 9.04492,2.425781 2.98175,0.83893 5.92707,1.706866 8.83594,2.605469 2.90829,0.898422 5.77956,1.827707 8.60938,2.785156 1.41489,0.478725 2.81865,0.963667 4.21289,1.457032 1.39422,0.493364 2.77754,0.994026 4.15039,1.501953 0,0 0.002,0 0.002,0 2.74572,1.015855 5.44753,2.061127 8.10351,3.134765 2.656,1.073639 5.26552,2.175841 7.82618,3.306641 1.27883,0.56474 2.54392,1.136487 3.79687,1.714844 1.25295,0.578355 2.49223,1.164005 3.71875,1.755859 3.68011,1.775805 7.23969,3.61063 10.67188,5.50586 4.57509,2.526332 8.92371,5.158641 13.02734,7.890624 3.07851,2.049514 6.01868,4.154843 8.81445,6.316407 0.9318,0.720407 1.84681,1.447068 2.7461,2.179687 0,0 0.002,0 0.002,0 1.79856,1.465257 3.53012,2.955347 5.19531,4.46875 4.99559,4.540211 9.38184,9.293315 13.09766,14.25 0,0 0,0.002 0,0.002 1.23825,1.651815 2.40294,3.32529 3.49023,5.021485 0,0 0,0.002 0,0.002 4.89359,7.634424 8.23674,15.713972 9.82618,24.195312 2.36003,18.13414 0.80707,33.98447 -3.97266,47.91211 0,0 0,0.002 0,0.002 -2.50361,7.29477 -5.89346,14.06255 -10.06836,20.35352 -3.04249,4.58458 -6.51483,8.92 -10.38672,13.01172 0,0 0,0.002 0,0.002 -11.61556,12.2747 -26.82093,22.34938 -44.74805,30.33203 -1.44029,0.64134 -2.90028,1.26741 -4.375,1.88086 -0.61457,0.25584 -1.24291,0.50088 -1.86328,0.75195 -0.83838,0.33897 -1.67264,0.6815 -2.52148,1.01172 -0.98345,0.3831 -1.98139,0.75351 -2.97852,1.125 -0.46364,0.17247 -0.92211,0.34958 -1.38867,0.51953 -1.15294,0.42069 -2.31986,0.82892 -3.49023,1.23438 -0.35003,0.12104 -0.69727,0.24359 -1.04883,0.36328 -1.26792,0.43244 -2.54847,0.85469 -3.83594,1.26953 -0.21838,0.0702 -0.43536,0.1412 -0.6543,0.21094 -1.46916,0.4688 -2.95175,0.92495 -4.44531,1.37109 -1.38383,0.41337 -2.78164,0.81295 -4.18555,1.20703 -1.73988,0.48825 -3.4918,0.96514 -5.26171,1.42383 -1.8776,0.4866 -3.77211,0.95649 -5.68164,1.41016 l -29.76758,68.74414 -26.11719,-60.3125 c -1.6109,0.12286 -3.22648,0.23828 -4.8457,0.3457 -6.24974,0.40661 -12.5665,0.68308 -18.93164,0.83399 -0.19457,0.005 -0.38933,0.007 -0.58399,0.0117 -6.2014,0.13944 -12.44714,0.15974 -18.7207,0.0625 -0.25073,-0.004 -0.50114,-0.006 -0.75195,-0.01 -3.06761,-0.0521 -6.14059,-0.13068 -9.21875,-0.23828 -0.28699,-0.01 -0.57428,-0.0227 -0.86133,-0.0332 -2.84468,-0.10416 -5.69109,-0.23185 -8.54102,-0.38281 -0.33801,-0.0179 -0.67561,-0.0322 -1.01367,-0.0508 -2.96866,-0.16297 -5.93986,-0.35526 -8.91016,-0.56836 -0.47992,-0.0344 -0.95953,-0.0698 -1.43945,-0.10547 -3.01418,-0.22441 -6.02766,-0.46685 -9.03906,-0.74219 -4.11059,-0.37582 -8.21715,-0.79861 -12.31446,-1.26757 -2.04863,-0.23448 -4.09519,-0.48093 -6.13867,-0.73828 -6.13044,-0.77208 -12.23517,-1.64599 -18.29687,-2.61915 -4.04113,-0.64874 -8.06231,-1.34073 -12.06055,-2.07617 -3.99825,-0.73544 -7.97246,-1.514 -11.91797,-2.33398 -9.86435,-2.05005 -19.54792,-4.36109 -28.97461,-6.91602 -3.77046,-1.02191 -7.49845,-2.08271 -11.18164,-3.18164 -9.20853,-2.74745 -18.12857,-5.73214 -26.68359,-8.9375 -1.71091,-0.64103 -3.40682,-1.29068 -5.08789,-1.94922 -3.36214,-1.31707 -6.663046,-2.66919 -9.898439,-4.05468 -3.235394,-1.3855 -6.405127,-2.8041 -9.503907,-4.25586 -3.098768,-1.45176 -6.125833,-2.9353 -9.078125,-4.45117 -2.952298,-1.51589 -5.829048,-3.06472 -8.625,-4.64258 -1.397974,-0.78894 -2.775773,-1.58465 -4.132812,-2.38868 -8.142724,-4.82441 -15.524671,-9.9134 -22.03125,-15.21679 -1.084003,-0.88351 -2.142863,-1.77482 -3.177735,-2.66992 0,0 -0.002,0 -0.002,0 -1.035226,-0.89543 -2.044301,-1.79658 -3.029297,-2.70313 -3.939933,-3.62622 -7.474693,-7.33846 -10.568359,-11.12305 -2.320276,-2.83841 -4.392413,-5.71671 -6.203125,-8.6289 C 18.44526,153.9531 17.870995,152.97795 17.326172,152 c -0.544823,-0.97795 -1.062557,-1.95781 -1.550781,-2.94141 -0.976438,-1.96719 -1.838555,-3.94632 -2.582032,-5.93945 -0.371537,-0.99597 -0.713654,-1.99672 -1.02539,-3 0,0 0,-0.002 0,-0.002 -2.1831783,-7.02708 -2.8862777,-14.23932 -1.921875,-21.73438 0.275589,-2.14148 0.688073,-4.30636 1.240234,-6.49609 0.828193,-3.28456 1.972205,-6.62554 3.447266,-10.03125 l 0.02148,-0.0527 0.02344,-0.0508 c 0.433577,-1.06621 0.887806,-2.123942 1.361328,-3.171872 0,0 0,-0.002 0,-0.002 2.842734,-6.290789 6.399152,-12.251382 10.605468,-17.884766 2.102864,-2.816322 4.369795,-5.550593 6.789063,-8.203125 0,0 0,-0.002 0,-0.002 0.806547,-0.88429 1.630196,-1.758888 2.470703,-2.625 0.840192,-0.865776 1.696788,-1.722689 2.570313,-2.570312 0.873865,-0.847946 1.765254,-1.687787 2.671875,-2.517578 0.906267,-0.829459 1.829183,-1.649606 2.767578,-2.460938 1.877546,-1.623302 3.819723,-3.210905 5.822265,-4.761719 1.000867,-0.775083 2.017642,-1.541833 3.048829,-2.298828 1.031615,-0.757303 2.079266,-1.504927 3.140624,-2.24414 1.060924,-0.738901 2.136523,-1.470569 3.226563,-2.191407 2.180998,-1.44227 4.4209,-2.848715 6.714844,-4.21875 1.146495,-0.684724 2.306664,-1.360644 3.480469,-2.027343 1.174303,-0.666977 2.363418,-1.32566 3.564453,-1.97461 2.401571,-1.297616 4.856496,-2.559543 7.361328,-3.785156 1.252686,-0.612932 2.519266,-1.217557 3.796875,-1.8125 6.387528,-2.974446 13.083537,-5.724261 20.048828,-8.25 1.39318,-0.505183 2.7984,-1.001012 4.21289,-1.488281 16.97388,-5.847226 35.40919,-10.384845 54.70117,-13.652344 4.52183,-0.765847 9.09496,-1.455106 13.70313,-2.082031 15.05181,-2.0477306 30.5198,-3.3634088 46.13867,-3.9531252 6.80039,-0.2567598 13.62801,-0.378941 20.46094,-0.3652344 z"
         transform="scale(0.26458332)" />
    </g>
  </g>
</svg>
